<?xml version="1.0" standalone="no"?>
<!DOCTYPE svg PUBLIC "-//W3C//DTD SVG 20010904//EN"
 "http://www.w3.org/TR/2001/REC-SVG-20010904/DTD/svg10.dtd">
<svg version="1.0" xmlns="http://www.w3.org/2000/svg"
 width="512.000000pt" height="512.000000pt" viewBox="0 0 512.000000 512.000000"
 preserveAspectRatio="xMidYMid meet">

<g transform="translate(0.000000,512.000000) scale(0.100000,-0.100000)"
fill="#000000" stroke="none">
<path d="M1499 4066 c-36 -13 -86 -37 -110 -54 -24 -17 -134 -121 -244 -231
l-200 -201 -472 0 -473 0 0 -1015 0 -1015 285 0 c314 0 322 1 390 61 42 37 85
118 85 162 0 25 3 27 41 27 32 0 49 -7 78 -32 36 -32 306 -276 538 -486 175
-159 264 -209 428 -239 158 -29 363 13 486 98 l27 19 66 -45 c113 -75 243
-101 369 -71 92 22 154 55 227 122 60 56 61 57 98 46 154 -46 323 -3 435 110
144 146 327 403 327 461 0 16 18 17 240 17 l240 0 0 -27 c0 -76 92 -192 169
-213 20 -5 161 -10 314 -10 l277 0 0 1015 0 1015 -482 0 -481 0 -216 213
c-195 193 -224 217 -295 253 l-80 39 -1000 2 -1001 3 -66 -24z m600 -353 c0
-5 -66 -66 -145 -138 -235 -210 -291 -283 -329 -425 -19 -72 -19 -211 0 -285
63 -241 307 -424 565 -425 130 0 245 47 370 152 l70 59 73 -58 c75 -61 509
-412 701 -568 150 -123 150 -121 21 -281 -175 -216 -166 -213 -310 -94 -54 44
-99 80 -100 80 -2 0 -58 -68 -125 -150 -68 -83 -131 -155 -141 -160 -10 -6
-37 -10 -62 -10 -41 0 -51 6 -197 130 -123 105 -156 128 -165 118 -7 -7 -44
-52 -83 -100 -59 -72 -83 -92 -137 -119 -56 -27 -76 -32 -144 -32 -125 -1
-134 5 -578 408 l-393 355 -115 0 -115 0 0 520 0 520 173 0 172 0 245 246
c135 135 254 249 265 254 25 11 485 13 484 3z m1641 -248 l255 -255 183 0 182
0 0 -520 0 -520 -282 0 -283 0 -34 35 c-18 19 -207 175 -419 347 -212 172
-397 322 -410 334 l-25 20 58 55 c116 110 115 156 -7 277 -72 70 -114 85 -164
59 -16 -9 -132 -111 -259 -227 -126 -116 -248 -220 -270 -231 -76 -36 -186
-18 -237 38 -27 29 -48 88 -48 133 0 86 8 95 385 440 116 105 227 203 248 216
74 48 115 53 507 53 l364 1 256 -255z m-3289 -1428 c75 -50 86 -142 24 -204
-43 -43 -92 -51 -148 -24 -100 48 -101 185 -2 235 43 21 87 19 126 -7z m4376
-19 c67 -67 49 -174 -36 -212 -110 -50 -226 65 -174 172 43 88 143 107 210 40z"/>
</g>
</svg>
