<?xml version="1.0" standalone="no"?>
<!DOCTYPE svg PUBLIC "-//W3C//DTD SVG 20010904//EN"
 "http://www.w3.org/TR/2001/REC-SVG-20010904/DTD/svg10.dtd">
<svg version="1.0" xmlns="http://www.w3.org/2000/svg"
 width="512.000000pt" height="512.000000pt" viewBox="0 0 512.000000 512.000000"
 preserveAspectRatio="xMidYMid meet">

<g transform="translate(0.000000,512.000000) scale(0.100000,-0.100000)"
fill="#000000" stroke="none">
<path d="M2481 5106 c-51 -18 -111 -74 -133 -123 -24 -55 -25 -135 -3 -191 17
-43 96 -122 121 -122 11 0 14 -28 14 -139 l0 -139 -55 -26 c-65 -32 -140 -112
-156 -167 l-12 -39 -697 0 -697 0 4 68 c4 60 2 73 -24 122 -74 140 -244 170
-362 64 -118 -106 -102 -285 33 -369 l49 -30 844 -5 843 -5 24 -51 c13 -28 29
-55 35 -58 8 -5 11 -288 11 -1001 l0 -994 -28 -15 c-38 -20 -80 -64 -106 -111
-21 -39 -21 -48 -24 -633 l-3 -592 -89 0 c-105 0 -116 -3 -136 -42 -19 -37 -5
-80 32 -97 18 -8 237 -11 766 -11 730 0 742 0 784 -21 60 -28 86 -74 92 -160
l5 -69 -1053 0 -1053 0 5 69 c4 47 12 80 27 104 23 38 91 77 133 77 69 0 103
83 53 130 -21 20 -31 22 -80 17 -110 -11 -197 -73 -247 -175 -32 -65 -33 -69
-33 -200 0 -128 1 -134 24 -153 23 -18 55 -19 1171 -19 1116 0 1148 1 1171 19
23 19 24 25 24 154 0 134 0 134 -35 203 -25 49 -49 79 -85 106 -82 63 -114 68
-411 68 l-263 0 -3 592 c-3 585 -3 594 -24 633 -28 51 -63 89 -102 109 l-32
16 -2 826 -3 826 -28 24 c-34 29 -56 30 -91 3 l-26 -20 -2 -822 -3 -822 -85 0
-85 0 0 930 0 930 70 -3 c131 -6 246 63 300 181 l25 52 843 5 844 5 49 30 c89
56 131 162 103 262 -9 33 -28 63 -63 99 -43 44 -60 54 -109 65 -109 24 -208
-23 -260 -121 -26 -49 -28 -62 -24 -122 l4 -68 -697 0 -697 0 -12 39 c-16 55
-91 135 -156 167 l-55 26 0 139 c0 111 3 139 14 139 25 0 104 79 121 122 37
94 13 202 -61 266 -66 59 -154 77 -233 48z m126 -151 c32 -22 43 -65 28 -102
-24 -56 -85 -70 -129 -30 -38 34 -39 85 -1 122 28 28 70 32 102 10z m-1918
-651 c24 -20 31 -34 31 -60 0 -89 -116 -116 -158 -37 -19 35 -14 63 17 94 36
36 70 37 110 3z m3852 -3 c31 -31 36 -59 17 -94 -42 -79 -158 -52 -158 37 0
26 7 40 31 60 40 34 74 33 110 -3z m-1885 -86 c126 -96 62 -295 -95 -295 -157
0 -224 199 -99 293 18 14 42 27 53 30 40 11 108 -3 141 -28z m125 -2481 l24
-26 3 -579 3 -579 -251 0 -251 0 3 579 3 579 24 26 24 26 197 0 197 0 24 -26z"/>
<path d="M923 3828 c-12 -6 -25 -18 -29 -27 -4 -9 -166 -473 -359 -1031 l-352
-1015 -71 -3 c-63 -3 -74 -6 -92 -29 -35 -44 -22 -139 33 -253 38 -78 163
-208 249 -258 373 -220 901 -225 1284 -14 37 20 105 72 151 116 68 64 91 94
125 162 34 69 42 96 46 157 4 66 2 77 -17 96 -17 17 -33 21 -90 21 l-68 0
-102 293 c-55 160 -215 622 -355 1025 -139 404 -260 740 -267 747 -20 20 -61
26 -86 13z m338 -1174 c166 -478 304 -877 306 -886 5 -17 -29 -18 -612 -18
-344 0 -615 4 -613 9 2 4 140 405 308 889 168 484 306 879 307 878 2 -2 139
-394 304 -872z m484 -1076 c-14 -45 -69 -120 -128 -173 -165 -150 -494 -237
-779 -206 -156 16 -254 44 -383 106 -150 73 -236 152 -280 258 l-15 37 796 0
795 0 -6 -22z"/>
<path d="M4133 3830 c-12 -5 -26 -17 -32 -28 -9 -17 -711 -2039 -711 -2048 0
-2 -32 -4 -70 -4 -58 0 -74 -4 -91 -21 -19 -19 -21 -30 -17 -96 14 -217 232
-431 534 -526 361 -113 769 -73 1072 105 79 46 211 180 245 249 57 114 71 218
37 262 -18 23 -29 26 -92 29 l-71 3 -352 1015 c-193 558 -355 1022 -359 1031
-7 15 -48 40 -64 38 -4 0 -17 -4 -29 -9z m338 -1185 c163 -473 301 -868 304
-877 7 -17 -26 -18 -609 -18 -339 0 -616 3 -616 6 0 3 127 371 281 818 155
446 293 845 307 886 14 41 28 68 30 60 3 -8 139 -402 303 -875z m474 -1082
c-115 -276 -598 -435 -1042 -343 -257 53 -480 205 -527 358 l-7 22 795 0 796
0 -15 -37z"/>
</g>
</svg>
