<?xml version="1.0" standalone="no"?>
<!DOCTYPE svg PUBLIC "-//W3C//DTD SVG 20010904//EN"
 "http://www.w3.org/TR/2001/REC-SVG-20010904/DTD/svg10.dtd">
<svg version="1.0" xmlns="http://www.w3.org/2000/svg"
 width="512.000000pt" height="512.000000pt" viewBox="0 0 512.000000 512.000000"
 preserveAspectRatio="xMidYMid meet">

<g transform="translate(0.000000,512.000000) scale(0.100000,-0.100000)"
fill="#000000" stroke="none">
<path d="M2079 5011 c-44 -14 -70 -31 -225 -147 -196 -147 -329 -231 -489
-310 -280 -137 -602 -214 -894 -214 -91 0 -143 -27 -188 -98 -44 -68 -60 -167
-72 -444 -33 -767 134 -1511 477 -2113 363 -637 901 -1126 1642 -1493 152 -75
156 -76 230 -76 71 0 82 3 200 60 1282 619 2019 1675 2140 3069 16 181 13 585
-5 760 -18 173 -26 209 -57 255 -39 57 -85 73 -237 82 -255 14 -398 40 -601
110 -228 78 -502 235 -705 402 -115 95 -185 142 -230 155 -46 13 -944 14 -986
2z m956 -486 c448 -349 849 -526 1318 -581 72 -8 134 -17 136 -20 12 -11 13
-532 1 -656 -60 -671 -297 -1286 -682 -1770 -103 -130 -323 -355 -451 -461
-137 -114 -310 -236 -456 -323 -69 -41 -128 -74 -133 -74 -10 0 -11 3954 -1
3963 3 4 41 7 83 7 l76 0 109 -85z"/>
</g>
</svg>
