<?xml version="1.0" standalone="no"?>
<!DOCTYPE svg PUBLIC "-//W3C//DTD SVG 20010904//EN"
 "http://www.w3.org/TR/2001/REC-SVG-20010904/DTD/svg10.dtd">
<svg version="1.0" xmlns="http://www.w3.org/2000/svg"
 width="360.000000pt" height="360.000000pt" viewBox="0 0 360.000000 360.000000"
 preserveAspectRatio="xMidYMid meet">

<g transform="translate(0.000000,360.000000) scale(0.100000,-0.100000)"
fill="#000000" stroke="none">
<path d="M1645 3374 c-172 -19 -361 -72 -520 -148 -456 -217 -768 -618 -876
-1126 -33 -152 -33 -448 0 -600 93 -435 333 -790 691 -1022 846 -549 1971
-182 2335 762 263 680 13 1461 -598 1873 -164 111 -404 207 -602 243 -88 15
-350 26 -430 18z m386 -220 c568 -95 1028 -555 1123 -1123 21 -122 21 -340 0
-462 -95 -568 -555 -1028 -1123 -1123 -122 -21 -340 -21 -462 0 -568 95 -1028
555 -1123 1123 -21 122 -21 340 0 462 95 566 551 1024 1119 1123 111 20 349
20 466 0z"/>
<path d="M1755 2704 c-63 -38 -216 -83 -322 -95 -104 -11 -252 0 -338 26 l-44
13 -22 -57 c-59 -158 -91 -443 -71 -639 45 -446 312 -824 727 -1030 49 -25
101 -45 115 -45 33 0 196 82 289 146 146 100 305 272 392 422 134 232 185 478
161 772 -13 158 -37 283 -71 374 l-22 57 -43 -13 c-71 -22 -226 -37 -306 -30
-108 9 -234 42 -320 83 -41 20 -77 37 -80 38 -3 1 -23 -9 -45 -22z"/>
</g>
</svg>
