<?xml version="1.0" standalone="no"?>
<!DOCTYPE svg PUBLIC "-//W3C//DTD SVG 20010904//EN"
 "http://www.w3.org/TR/2001/REC-SVG-20010904/DTD/svg10.dtd">
<svg version="1.0" xmlns="http://www.w3.org/2000/svg"
 width="225.000000pt" height="225.000000pt" viewBox="0 0 225.000000 225.000000"
 preserveAspectRatio="xMidYMid meet">

<g transform="translate(0.000000,225.000000) scale(0.100000,-0.100000)"
fill="#000000" stroke="none">
<path d="M76 993 c25 -360 289 -709 637 -843 153 -60 236 -74 412 -74 179 0
245 11 393 67 173 65 345 192 458 338 61 80 127 207 157 304 27 87 52 235 44
257 -3 7 -6 -1 -6 -18 -2 -55 -39 -183 -80 -269 -183 -391 -587 -626 -1031
-602 -271 15 -533 136 -716 328 -138 145 -234 337 -264 526 l-9 58 5 -72z"/>
</g>
</svg>
